<svg width="950" height="950" viewBox="0 0 950 950" fill="none" xmlns="http://www.w3.org/2000/svg">
<path d="M474.86 934.22C728.557 934.22 934.22 728.557 934.22 474.86C934.22 221.162 728.557 15.5 474.86 15.5C221.162 15.5 15.5 221.162 15.5 474.86C15.5 728.557 221.162 934.22 474.86 934.22Z" stroke="white" stroke-width="31" stroke-miterlimit="10"/>
<path d="M471.92 925.42L222.29 405.51C164.11 283.51 145.34 238.46 90.9099 238.46V236.58H481.3V238.46C412.79 238.46 416.55 304.15 448.45 373.6L585.47 673.91L471.92 925.42ZM655.86 504.99C697.15 351.08 702.78 238.47 614.57 238.47V236.59H879.22V238.47C790.07 238.47 717.8 371.73 657.74 504.99H655.86Z" fill="white"/>
</svg>
